<svg xmlns="http://www.w3.org/2000/svg" width="286" height="556" viewBox="0 0 286 556" version="1.1"><path d="M 80.813 1.683 C 81.534 1.972, 82.397 1.936, 82.729 1.604 C 83.061 1.272, 82.471 1.036, 81.417 1.079 C 80.252 1.127, 80.015 1.364, 80.813 1.683 M 87.250 1.689 C 88.213 1.941, 89.787 1.941, 90.750 1.689 C 91.713 1.438, 90.925 1.232, 89 1.232 C 87.075 1.232, 86.287 1.438, 87.250 1.689 M 101.500 8 C 104.209 10.750, 106.650 13, 106.925 13 C 107.200 13, 105.209 10.750, 102.500 8 C 99.791 5.250, 97.350 3, 97.075 3 C 96.800 3, 98.791 5.250, 101.500 8 M 66.946 8.750 L 63.500 12.500 67.250 9.054 C 70.740 5.846, 71.460 5, 70.696 5 C 70.529 5, 68.842 6.688, 66.946 8.750 M 77.689 15.701 C 76.117 16.108, 75.965 16.870, 76.539 21.464 C 76.982 25.014, 76.779 27.538, 75.923 29.129 C 75.220 30.433, 74.668 34.313, 74.697 37.750 C 74.753 44.400, 74.016 45.525, 72.206 41.553 C 70.813 38.495, 66.509 35.591, 64.508 36.359 C 61.155 37.645, 63.617 47.218, 68.111 50.365 C 70.374 51.950, 73.795 63.810, 72.306 64.906 C 71.863 65.233, 71.500 67.347, 71.500 69.604 C 71.500 73.004, 72.056 74.175, 74.742 76.436 C 76.525 77.937, 78.760 80.477, 79.708 82.082 C 81.901 85.796, 83.531 85.785, 84.834 82.048 C 85.964 78.806, 93.551 72.861, 100.921 69.443 C 104.946 67.577, 105.736 66.665, 107.450 61.910 C 109.472 56.297, 109.879 47.914, 108.924 31.500 C 108.481 23.870, 108.279 23.304, 104.566 19.250 L 100.672 15 90.086 15.116 C 84.264 15.180, 78.685 15.443, 77.689 15.701 M 58.954 19.086 C 58.340 20.233, 58.026 21.360, 58.257 21.590 C 58.487 21.820, 59.189 20.882, 59.816 19.504 C 61.194 16.480, 60.523 16.154, 58.954 19.086 M 269.500 19 C 267.870 19.701, 267.812 19.872, 269.191 19.930 C 270.121 19.968, 271.160 19.550, 271.500 19 C 272.211 17.850, 272.176 17.850, 269.500 19 M 276.638 19.500 C 276.955 20.325, 277.671 21, 278.229 21 C 278.815 21, 278.718 20.365, 278 19.500 C 277.315 18.675, 276.599 18, 276.409 18 C 276.219 18, 276.322 18.675, 276.638 19.500 M 254.322 23.326 C 252.574 23.972, 250.824 24.825, 250.434 25.221 C 249.592 26.077, 251.884 34.810, 253.157 35.597 C 253.642 35.897, 256.279 34.497, 259.017 32.487 C 263.387 29.280, 263.918 28.506, 263.360 26.166 C 263.010 24.700, 262.534 23.163, 262.303 22.750 C 261.706 21.687, 258.045 21.951, 254.322 23.326 M 57.272 29 C 57.272 31.475, 57.467 32.487, 57.706 31.250 C 57.944 30.012, 57.944 27.988, 57.706 26.750 C 57.467 25.512, 57.272 26.525, 57.272 29 M 243.244 26.664 C 242.553 26.943, 242.242 27.582, 242.553 28.085 C 242.864 28.588, 242.472 29, 241.681 29 C 240.891 29, 239.689 29.670, 239.009 30.489 C 238.329 31.308, 237.380 31.735, 236.898 31.437 C 236.417 31.140, 236.298 31.613, 236.634 32.489 C 236.970 33.365, 236.853 34.010, 236.373 33.922 C 234.324 33.548, 232.927 34.073, 233.500 35 C 233.840 35.550, 233.593 36, 232.952 36 C 232.311 36, 232.045 36.675, 232.362 37.500 C 232.678 38.325, 232.501 39, 231.969 39 C 231.436 39, 231 39.702, 231 40.559 C 231 41.495, 230.532 41.829, 229.830 41.395 C 229.036 40.904, 228.872 41.224, 229.319 42.389 C 230.140 44.527, 227.683 47.250, 223 49.393 C 221.075 50.274, 216.603 53.021, 213.062 55.498 C 207.847 59.144, 205.803 60, 202.307 60 C 198.064 60, 194.494 61.414, 183 67.646 C 174.128 72.457, 163.552 75.356, 157.583 74.612 C 147.694 73.380, 142.786 72.272, 142.067 71.109 C 141.667 70.462, 140.634 70.203, 139.771 70.534 C 138.908 70.865, 137.905 70.656, 137.542 70.068 C 137.179 69.481, 136.023 69, 134.972 69 C 132.101 69, 133.652 71.852, 137.342 73.358 L 140.432 74.619 135.466 75.999 C 127.985 78.078, 116.945 83.772, 112.939 87.618 C 110.151 90.295, 107.440 91.548, 100.439 93.397 C 90.032 96.146, 79.363 98.432, 69.500 100.028 C 47.105 103.652, 35.627 107.282, 30.569 112.340 C 29.079 113.830, 27.947 114.350, 27.710 113.653 C 27.494 113.019, 26.807 115.374, 26.184 118.887 C 25.561 122.400, 25.252 125.599, 25.498 125.997 C 26.998 128.424, 25.003 166.424, 23.205 169.684 C 22.542 170.886, 22 173.495, 22 175.484 C 22 177.472, 21.388 180.314, 20.639 181.800 C 18.630 185.786, 17.907 191.559, 16.980 211 C 16.521 220.625, 15.497 232.100, 14.704 236.500 C 11.481 254.376, 10.741 260.983, 11.816 262.278 C 13.014 263.722, 12.207 272, 10.868 272 C 10.391 272, 10 274.250, 10 277 C 10 279.750, 10.379 282, 10.842 282 C 11.305 282, 12.223 283.800, 12.882 286 C 13.541 288.200, 14.587 290, 15.207 290 C 15.826 290, 16.037 290.296, 15.675 290.658 C 14.694 291.639, 17.060 294.081, 18.268 293.334 C 18.849 292.975, 19.013 293.171, 18.638 293.776 C 18.269 294.373, 18.432 295.149, 19 295.500 C 19.568 295.851, 19.864 296.445, 19.658 296.819 C 19.452 297.194, 21.807 299.991, 24.891 303.035 C 27.976 306.079, 29.212 307.131, 27.638 305.372 C 26.064 303.613, 24.995 301.572, 25.263 300.837 C 25.531 300.101, 24.892 298.073, 23.842 296.329 C 22.625 294.306, 22.308 292.927, 22.967 292.520 C 23.535 292.169, 24 289.246, 24 286.024 C 24 282.388, 24.759 278.396, 26 275.500 C 28.405 269.890, 28.536 266.210, 26.438 263.215 C 25.200 261.448, 25.148 260.903, 26.188 260.588 C 26.910 260.370, 28.237 259.957, 29.138 259.670 C 30.879 259.116, 32.351 250.791, 30.819 250.167 C 29.535 249.644, 29.850 248.198, 31.722 246.011 C 34.330 242.966, 34.706 243.517, 33.935 249.250 C 33.547 252.137, 33.582 254.882, 34.013 255.349 C 34.863 256.268, 36.036 251.930, 36.507 246.129 C 36.669 244.133, 39.076 235.750, 41.857 227.500 C 44.638 219.250, 47.701 208.802, 48.664 204.282 C 50.286 196.668, 50.538 196.177, 52.108 197.598 C 53.108 198.502, 54.047 198.733, 54.401 198.160 C 54.731 197.626, 58.713 195.049, 63.250 192.433 C 67.788 189.817, 73.750 186.029, 76.500 184.015 C 79.250 182.001, 85.031 178.218, 89.346 175.608 C 98.417 170.122, 96.218 169.431, 109.278 181.870 C 113.556 185.944, 117.257 189.076, 117.504 188.829 C 117.751 188.583, 119.102 179.001, 120.507 167.537 C 121.913 156.073, 124.130 141.025, 125.436 134.097 C 126.741 127.169, 128.390 117.338, 129.099 112.250 C 129.808 107.163, 130.638 103.011, 130.944 103.025 C 131.250 103.039, 132.850 105.833, 134.500 109.234 C 136.569 113.498, 138.551 116.026, 140.887 117.381 C 144.226 119.317, 144.295 119.317, 145.669 117.422 C 146.436 116.365, 148.253 114.001, 149.706 112.170 C 151.160 110.338, 153.349 106.681, 154.572 104.042 C 156.686 99.478, 159 96.766, 159 98.852 C 159 99.385, 158.106 102.674, 157.013 106.161 C 154.245 114.990, 154.479 116.137, 158.210 112.032 C 159.943 110.125, 162.004 108.470, 162.789 108.355 C 163.574 108.239, 165.209 107.213, 166.423 106.073 C 168.671 103.961, 171.622 103.184, 170.500 105 C 169.016 107.400, 172.832 105.668, 176.331 102.352 C 179.330 99.510, 181.601 98.420, 186.798 97.331 C 190.449 96.566, 194.379 95.053, 195.532 93.970 C 196.685 92.886, 197.948 92, 198.338 92 C 198.729 92, 202.296 89.525, 206.267 86.500 C 210.237 83.475, 214.164 80.948, 214.993 80.885 C 215.822 80.821, 216.950 80.665, 217.500 80.537 C 218.050 80.409, 219.063 80.236, 219.750 80.152 C 222.715 79.791, 220.660 77.997, 217.250 77.970 C 212.405 77.930, 214.505 76.663, 222.250 74.952 C 228.449 73.583, 229.654 72.323, 225.250 71.816 C 223.613 71.628, 222.500 70.893, 222.500 70 C 222.500 69.175, 221.488 67.680, 220.250 66.677 C 216.728 63.825, 217.262 59.188, 221.750 53.642 C 226.338 47.973, 229.236 47.264, 225.925 52.621 C 223.484 56.570, 223.078 62.535, 224.923 67.331 C 226.071 70.315, 228.606 70.494, 228.350 67.574 C 228.244 66.368, 228.687 66.051, 229.850 66.500 C 231.552 67.158, 240.604 69, 242.136 69 C 244.068 69, 242.828 67.174, 240.500 66.589 C 236.887 65.683, 237.428 64, 241.333 64 C 243.167 64, 244.936 63.731, 245.264 63.402 C 246.400 62.267, 244.780 60, 242.834 60 C 241.760 60, 241.160 59.550, 241.500 59 C 241.840 58.450, 243.190 58, 244.500 58 C 247.791 58, 248.451 56.430, 245.908 54.648 C 244.669 53.781, 244.089 52.665, 244.517 51.973 C 245.061 51.093, 245.432 51.081, 245.955 51.927 C 246.964 53.559, 250 52.120, 250 50.010 C 250 49.026, 248.996 47.945, 247.750 47.586 C 245.631 46.977, 245.719 46.810, 249.240 44.720 C 253.516 42.182, 254.148 40.674, 250.557 41.575 C 246.834 42.509, 245.591 41.152, 248.220 39.023 C 250.448 37.218, 250.454 37.159, 248.586 35.095 C 246.889 33.220, 247.078 32.551, 249.214 32.870 C 250.233 33.021, 248.968 29.817, 247.193 27.750 C 245.623 25.922, 245.303 25.834, 243.244 26.664 M 282.405 31.250 L 280.500 33.500 282.750 31.595 C 283.988 30.547, 285 29.535, 285 29.345 C 285 28.545, 284.195 29.136, 282.405 31.250 M 116.079 34.583 C 116.127 35.748, 116.364 35.985, 116.683 35.188 C 116.972 34.466, 116.936 33.603, 116.604 33.271 C 116.272 32.939, 116.036 33.529, 116.079 34.583 M 240.263 36.769 C 237.597 40.025, 237.076 47, 239.500 47 C 240.356 47, 241 46.101, 241 44.906 C 241 43.658, 241.803 42.603, 242.989 42.293 C 244.083 42.007, 244.718 41.352, 244.400 40.838 C 244.059 40.286, 243.244 40.383, 242.411 41.074 C 241.482 41.845, 241 41.882, 241 41.181 C 241 40.597, 241.457 39.835, 242.016 39.490 C 242.575 39.144, 242.793 38.474, 242.500 38 C 242.207 37.526, 242.425 36.856, 242.984 36.510 C 244.163 35.781, 244.354 33.991, 243.250 34.019 C 242.838 34.030, 241.494 35.267, 240.263 36.769 M 275.924 38.720 C 274.146 40.715, 274.032 41.048, 275.496 39.970 C 278.680 37.625, 280.215 36, 279.246 36 C 278.752 36, 277.258 37.224, 275.924 38.720 M 255.482 38.188 C 255.132 39.098, 255.331 40.749, 255.923 41.856 C 257.612 45.012, 257.229 46.024, 253.908 47.182 C 251.313 48.086, 250.895 48.669, 251.304 50.810 C 251.572 52.213, 251.280 54.180, 250.655 55.180 C 249.802 56.547, 249.814 57.472, 250.704 58.898 C 251.709 60.506, 251.577 60.877, 249.839 61.332 C 247.125 62.042, 248 64.421, 251.114 64.796 C 253.149 65.041, 253.888 64.381, 255.389 60.980 C 256.386 58.719, 256.944 56.610, 256.628 56.294 C 256.311 55.978, 256.795 54.462, 257.703 52.925 C 259.028 50.682, 259.110 49.838, 258.119 48.644 C 257.141 47.465, 257.141 46.748, 258.118 45.183 C 259.121 43.576, 259.049 42.586, 257.734 39.870 C 256.462 37.243, 255.982 36.885, 255.482 38.188 M 116.079 45.583 C 116.127 46.748, 116.364 46.985, 116.683 46.188 C 116.972 45.466, 116.936 44.603, 116.604 44.271 C 116.272 43.939, 116.036 44.529, 116.079 45.583 M 63 49.941 C 63 50.459, 63.445 51.157, 63.989 51.493 C 64.555 51.843, 64.723 51.442, 64.382 50.552 C 63.717 48.820, 63 48.503, 63 49.941 M 116.079 61.583 C 116.127 62.748, 116.364 62.985, 116.683 62.188 C 116.972 61.466, 116.936 60.603, 116.604 60.271 C 116.272 59.939, 116.036 60.529, 116.079 61.583 M 263.872 61.750 C 262.629 63.336, 262.664 63.371, 264.250 62.128 C 265.916 60.821, 266.445 60, 265.622 60 C 265.415 60, 264.627 60.788, 263.872 61.750 M 236.300 71.310 C 234.846 73.692, 230.600 76, 227.671 76 C 225.646 76, 224.942 76.406, 225.309 77.363 C 225.597 78.113, 223.753 81.103, 221.212 84.007 C 215.181 90.903, 218.404 89.080, 229.013 79.597 C 233.681 75.425, 237.838 72.008, 238.250 72.005 C 238.662 72.002, 239 71.550, 239 71 C 239 69.565, 237.242 69.767, 236.300 71.310 M 116 71.893 C 116 72.384, 116.712 73.059, 117.582 73.393 C 120.028 74.332, 120.351 74.128, 119 72.500 C 117.620 70.838, 116 70.510, 116 71.893 M 259.441 73.555 C 257.577 75.049, 257.589 75.067, 259.750 74.020 C 260.988 73.420, 262 72.720, 262 72.465 C 262 71.700, 261.481 71.921, 259.441 73.555 M 68.459 74.067 C 68.096 74.653, 68.014 75.348, 68.276 75.610 C 68.538 75.872, 69.019 75.392, 69.345 74.543 C 70.021 72.781, 69.445 72.471, 68.459 74.067 M 121.813 74.683 C 122.534 74.972, 123.397 74.936, 123.729 74.604 C 124.061 74.272, 123.471 74.036, 122.417 74.079 C 121.252 74.127, 121.015 74.364, 121.813 74.683 M 254 76.583 C 252.319 77.516, 252.033 77.975, 253.128 77.985 C 254.023 77.993, 255.315 77.325, 256 76.500 C 257.460 74.740, 257.310 74.747, 254 76.583 M 65.029 77.961 C 64.220 78.473, 63.818 79.152, 64.136 79.470 C 64.455 79.788, 65.284 79.362, 65.980 78.524 C 67.423 76.786, 67.146 76.622, 65.029 77.961 M 72 77.378 C 72 77.585, 72.787 78.373, 73.750 79.128 C 75.336 80.371, 75.371 80.336, 74.128 78.750 C 72.821 77.084, 72 76.555, 72 77.378 M 245 79 C 244.099 79.582, 243.975 79.975, 244.691 79.985 C 245.346 79.993, 246.160 79.550, 246.500 79 C 247.267 77.758, 246.921 77.758, 245 79 M 248.813 78.683 C 249.534 78.972, 250.397 78.936, 250.729 78.604 C 251.061 78.272, 250.471 78.036, 249.417 78.079 C 248.252 78.127, 248.015 78.364, 248.813 78.683 M 58.564 83.707 C 58.022 85.132, 58.136 85.247, 59.124 84.267 C 59.808 83.588, 60.115 82.781, 59.807 82.474 C 59.499 82.166, 58.940 82.721, 58.564 83.707 M 239 84 C 238.099 84.582, 237.975 84.975, 238.691 84.985 C 239.346 84.993, 240.160 84.550, 240.500 84 C 241.267 82.758, 240.921 82.758, 239 84 M 51.694 90.532 C 50.151 91.889, 49.285 93, 49.770 93 C 50.255 93, 51.708 91.875, 53 90.500 C 55.989 87.319, 55.328 87.335, 51.694 90.532 M 45.507 94.989 C 45.157 95.555, 45.558 95.723, 46.448 95.382 C 48.180 94.717, 48.497 94, 47.059 94 C 46.541 94, 45.843 94.445, 45.507 94.989 M 41 98 C 39.625 99.076, 38.993 99.966, 39.595 99.978 C 40.197 99.990, 41.505 99.100, 42.500 98 C 44.780 95.480, 44.221 95.480, 41 98 M 222.559 97.532 C 221.491 98.339, 221.099 99, 221.686 99 C 222.274 99, 223.315 98.325, 224 97.500 C 225.557 95.624, 225.067 95.634, 222.559 97.532 M 183 105.019 C 170.462 111.941, 164.938 115.271, 165.335 115.668 C 166.155 116.488, 195 100.665, 195 99.396 C 195 98.550, 193.140 99.421, 183 105.019 M 34.752 101.841 C 33.240 102.754, 32.003 103.868, 32.002 104.318 C 32.001 104.768, 33.350 104.175, 35 103 C 36.650 101.825, 38 100.669, 38 100.432 C 38 99.880, 38.008 99.876, 34.752 101.841 M 216.441 101.555 C 214.577 103.049, 214.589 103.067, 216.750 102.020 C 217.988 101.420, 219 100.720, 219 100.465 C 219 99.700, 218.481 99.921, 216.441 101.555 M 206.507 105.989 C 206.157 106.555, 206.558 106.723, 207.448 106.382 C 209.180 105.717, 209.497 105, 208.059 105 C 207.541 105, 206.843 105.445, 206.507 105.989 M 28.158 110 C 28.158 111.375, 28.385 111.938, 28.662 111.250 C 28.940 110.563, 28.940 109.438, 28.662 108.750 C 28.385 108.063, 28.158 108.625, 28.158 110 M 192.872 112.750 C 191.603 114.369, 191.650 114.390, 193.500 113.033 C 194.600 112.226, 195.688 111.439, 195.917 111.283 C 196.146 111.127, 195.863 111, 195.289 111 C 194.715 111, 193.627 111.787, 192.872 112.750 M 185 117.059 C 185 117.641, 185.450 117.840, 186 117.500 C 186.550 117.160, 187 116.684, 187 116.441 C 187 116.198, 186.550 116, 186 116 C 185.450 116, 185 116.477, 185 117.059 M 157.548 117.923 C 157.234 118.431, 155.684 119.130, 154.105 119.477 C 151.670 120.012, 150.776 121.206, 148.241 127.304 C 146.596 131.262, 144.757 137.362, 144.155 140.861 C 143.553 144.359, 142.621 147.752, 142.083 148.400 C 139.369 151.670, 138.500 159.304, 138.315 181.500 C 138.070 210.815, 137.644 222.209, 136.738 223.641 C 136.319 224.304, 137.088 225.483, 138.576 226.458 C 140.627 227.801, 140.900 228.416, 139.954 229.555 C 139.025 230.675, 139.117 231.108, 140.387 231.595 C 141.274 231.936, 142.012 232.953, 142.026 233.857 C 142.041 234.761, 142.904 237.300, 143.945 239.500 L 145.838 243.500 145.919 239.715 C 145.964 237.633, 145.282 234.833, 144.404 233.494 C 143.291 231.795, 142.710 228.100, 142.485 221.279 C 142.307 215.901, 141.706 203.472, 141.148 193.660 C 140.125 175.666, 140.441 170.857, 143.391 159.500 C 144.248 156.200, 146.100 148.325, 147.506 142 C 149.887 131.294, 154.187 120, 155.882 120 C 157.166 120, 160.554 117.065, 159.309 117.032 C 158.654 117.014, 157.861 117.415, 157.548 117.923 M 177.441 120.555 C 175.611 122.022, 175.643 122.042, 178 120.920 C 181.061 119.462, 181.628 119, 180.358 119 C 179.821 119, 178.509 119.700, 177.441 120.555 M 122.731 124.920 C 122.296 126.583, 122.426 126.974, 123.168 126.232 C 123.750 125.650, 124.028 124.585, 123.788 123.863 C 123.538 123.114, 123.085 123.568, 122.731 124.920 M 160 131.059 C 160 131.641, 160.450 131.840, 161 131.500 C 161.550 131.160, 162 130.684, 162 130.441 C 162 130.198, 161.550 130, 161 130 C 160.450 130, 160 130.477, 160 131.059 M 156.459 140.067 C 156.096 140.653, 156.014 141.348, 156.276 141.610 C 156.538 141.872, 157.019 141.392, 157.345 140.543 C 158.021 138.781, 157.445 138.471, 156.459 140.067 M 40 140.762 C 40 141.416, 40.898 143.425, 41.996 145.226 C 43.094 147.027, 43.994 149.458, 43.996 150.628 C 43.998 151.798, 44.722 154.483, 45.603 156.593 C 46.699 159.215, 46.857 160.548, 46.103 160.799 C 45.497 161.001, 45 162.281, 45 163.642 C 45 165.025, 45.438 165.847, 45.992 165.505 C 46.623 165.115, 46.841 167.188, 46.592 171.196 C 46.377 174.663, 46.156 178.297, 46.100 179.271 C 46.045 180.246, 44.875 181.555, 43.500 182.182 C 40.627 183.491, 40.161 185.211, 42.750 184.948 C 46.055 184.612, 48 185.001, 48 186 C 48 186.550, 47.341 187, 46.535 187 C 45.730 187, 44.569 187.937, 43.955 189.083 C 43.080 190.720, 43.176 191.537, 44.407 192.897 C 45.559 194.170, 45.678 194.922, 44.857 195.743 C 43.690 196.910, 42.870 204.006, 43.904 203.992 C 44.973 203.978, 47 198.668, 47 195.882 C 47 192.053, 47.960 190, 49.752 190 C 51.069 190, 51.174 188.957, 50.484 182.750 C 49.659 175.319, 49.518 168.932, 50.006 161 C 50.228 157.404, 49.538 155.093, 46.574 149.500 C 42.723 142.233, 40 138.614, 40 140.762 M 155.079 145.583 C 155.127 146.748, 155.364 146.985, 155.683 146.188 C 155.972 145.466, 155.936 144.603, 155.604 144.271 C 155.272 143.939, 155.036 144.529, 155.079 145.583 M 152.079 159.583 C 152.127 160.748, 152.364 160.985, 152.683 160.188 C 152.972 159.466, 152.936 158.603, 152.604 158.271 C 152.272 157.939, 152.036 158.529, 152.079 159.583 M 149.459 171.067 C 149.096 171.653, 149.014 172.348, 149.276 172.610 C 149.538 172.872, 150.019 172.392, 150.345 171.543 C 151.021 169.781, 150.445 169.471, 149.459 171.067 M 148.158 177 C 148.158 178.375, 148.385 178.938, 148.662 178.250 C 148.940 177.563, 148.940 176.438, 148.662 175.750 C 148.385 175.063, 148.158 175.625, 148.158 177 M 148.360 202 C 148.360 207.225, 148.529 209.363, 148.735 206.750 C 148.941 204.137, 148.941 199.863, 148.735 197.250 C 148.529 194.637, 148.360 196.775, 148.360 202 M 40.469 207.051 C 40.141 207.581, 40.640 208.308, 41.577 208.668 C 43.146 209.270, 43.132 209.430, 41.395 210.700 C 39.874 211.813, 39.773 212.242, 40.875 212.923 C 42.028 213.635, 42.027 213.901, 40.870 214.633 C 39.287 215.635, 37 219.453, 37 221.093 C 37 221.710, 37.675 221.955, 38.500 221.638 C 41.046 220.661, 40.153 222.609, 37.500 223.818 C 34.484 225.192, 34.220 227, 37.036 227 C 41.124 227, 46.347 208.115, 42.652 206.697 C 41.779 206.362, 40.796 206.521, 40.469 207.051 M 149 219.941 C 149 221.009, 149.385 222.120, 149.856 222.411 C 150.326 222.702, 150.499 221.828, 150.239 220.470 C 149.675 217.519, 149 217.231, 149 219.941 M 36.139 230.086 C 33.923 231.882, 33.902 232, 35.782 232 C 36.884 232, 38.070 231.261, 38.417 230.357 C 39.327 227.985, 38.807 227.923, 36.139 230.086 M 49.630 231.250 C 48.736 234.586, 48.850 234.995, 50.500 234.362 C 52.083 233.754, 52.630 229, 51.117 229 C 50.631 229, 49.962 230.012, 49.630 231.250 M 150.079 233.583 C 150.127 234.748, 150.364 234.985, 150.683 234.188 C 150.972 233.466, 150.936 232.603, 150.604 232.271 C 150.272 231.939, 150.036 232.529, 150.079 233.583 M 35.085 236.250 C 34.617 237.488, 34.476 238.906, 34.770 239.401 C 35.406 240.473, 38 237.187, 38 235.309 C 38 233.174, 36.004 233.819, 35.085 236.250 M 48.079 237.583 C 48.127 238.748, 48.364 238.985, 48.683 238.188 C 48.972 237.466, 48.936 236.603, 48.604 236.271 C 48.272 235.939, 48.036 236.529, 48.079 237.583 M 51.079 239.583 C 51.127 240.748, 51.364 240.985, 51.683 240.188 C 51.972 239.466, 51.936 238.603, 51.604 238.271 C 51.272 237.939, 51.036 238.529, 51.079 239.583 M 151.031 238.500 C 151.031 239.050, 151.467 240.175, 152 241 C 152.533 241.825, 152.969 242.050, 152.969 241.500 C 152.969 240.950, 152.533 239.825, 152 239 C 151.467 238.175, 151.031 237.950, 151.031 238.500 M 145.752 244.750 C 145.551 245.162, 145.703 247.075, 146.089 249 C 146.787 252.475, 146.791 252.470, 146.700 248.250 C 146.609 243.993, 146.435 243.350, 145.752 244.750 M 153.825 246.674 C 154.251 248.767, 154.503 249.019, 154.794 247.644 C 155.011 246.623, 154.751 245.351, 154.218 244.818 C 153.592 244.192, 153.452 244.849, 153.825 246.674 M 44.954 247.086 C 44.340 248.233, 44.026 249.360, 44.257 249.590 C 44.487 249.820, 45.189 248.882, 45.816 247.504 C 47.194 244.480, 46.523 244.154, 44.954 247.086 M 49.158 257 C 49.158 258.375, 49.385 258.938, 49.662 258.250 C 49.940 257.563, 49.940 256.438, 49.662 255.750 C 49.385 255.063, 49.158 255.625, 49.158 257 M 155.300 260 C 155.300 263.025, 155.487 264.262, 155.716 262.750 C 155.945 261.238, 155.945 258.762, 155.716 257.250 C 155.487 255.738, 155.300 256.975, 155.300 260 M 32.667 258.667 C 31.620 259.714, 31.888 264, 33 264 C 33.550 264, 34 262.650, 34 261 C 34 257.893, 33.796 257.537, 32.667 258.667 M 147.675 278.500 C 147.938 288.950, 148.569 301.088, 149.077 305.474 C 149.584 309.859, 150.083 317.959, 150.185 323.474 C 150.287 328.988, 150.527 331.250, 150.718 328.500 C 151.219 321.297, 149.165 271.512, 148.098 265 C 147.473 261.189, 147.343 265.335, 147.675 278.500 M 47.625 266.125 C 46.791 270.293, 47.599 271.101, 48.500 267 C 48.880 265.271, 48.982 263.649, 48.727 263.394 C 48.472 263.139, 47.976 264.368, 47.625 266.125 M 41 267.300 C 41 269.115, 40.438 271.167, 39.750 271.859 C 38.748 272.869, 38.847 272.986, 40.250 272.452 C 41.503 271.975, 42 270.680, 42 267.893 C 42 265.752, 41.775 264, 41.500 264 C 41.225 264, 41 265.485, 41 267.300 M 156.252 273.500 C 156.263 275.700, 156.468 276.482, 156.707 275.238 C 156.946 273.994, 156.937 272.194, 156.687 271.238 C 156.437 270.282, 156.241 271.300, 156.252 273.500 M 37.252 276.500 C 37.263 278.700, 37.468 279.482, 37.707 278.238 C 37.946 276.994, 37.937 275.194, 37.687 274.238 C 37.437 273.282, 37.241 274.300, 37.252 276.500 M 17.810 277 C 17.509 278.925, 17.580 281.367, 17.968 282.426 C 18.644 284.271, 18.698 284.263, 19.225 282.246 C 19.528 281.088, 19.457 278.646, 19.067 276.820 L 18.359 273.500 17.810 277 M 46.397 295 C 46.397 302.975, 46.553 306.238, 46.743 302.250 C 46.932 298.262, 46.932 291.738, 46.743 287.750 C 46.553 283.762, 46.397 287.025, 46.397 295 M 34.872 283.750 C 33.629 285.336, 33.664 285.371, 35.250 284.128 C 36.916 282.821, 37.445 282, 36.622 282 C 36.415 282, 35.627 282.788, 34.872 283.750 M 33.232 290 C 33.232 291.925, 33.438 292.712, 33.689 291.750 C 33.941 290.788, 33.941 289.212, 33.689 288.250 C 33.438 287.288, 33.232 288.075, 33.232 290 M 158.272 311 C 158.272 313.475, 158.467 314.488, 158.706 313.250 C 158.944 312.012, 158.944 309.988, 158.706 308.750 C 158.467 307.512, 158.272 308.525, 158.272 311 M 35.500 309 C 33.592 309.820, 33.603 309.863, 35.750 309.930 C 36.987 309.968, 38 309.550, 38 309 C 38 308.450, 37.888 308.032, 37.750 308.070 C 37.612 308.109, 36.600 308.527, 35.500 309 M 101.195 322.500 C 101.215 324.150, 101.439 324.704, 101.693 323.731 C 101.947 322.758, 101.930 321.408, 101.656 320.731 C 101.382 320.054, 101.175 320.850, 101.195 322.500 M 104.079 324.583 C 104.127 325.748, 104.364 325.985, 104.683 325.188 C 104.972 324.466, 104.936 323.603, 104.604 323.271 C 104.272 322.939, 104.036 323.529, 104.079 324.583 M 47.158 327 C 47.158 328.375, 47.385 328.938, 47.662 328.250 C 47.940 327.563, 47.940 326.438, 47.662 325.750 C 47.385 325.063, 47.158 325.625, 47.158 327 M 101.079 328.583 C 101.127 329.748, 101.364 329.985, 101.683 329.188 C 101.972 328.466, 101.936 327.603, 101.604 327.271 C 101.272 326.939, 101.036 327.529, 101.079 328.583 M 106.079 336.583 C 106.127 337.748, 106.364 337.985, 106.683 337.188 C 106.972 336.466, 106.936 335.603, 106.604 335.271 C 106.272 334.939, 106.036 335.529, 106.079 336.583 M 159.079 340.583 C 159.127 341.748, 159.364 341.985, 159.683 341.188 C 159.972 340.466, 159.936 339.603, 159.604 339.271 C 159.272 338.939, 159.036 339.529, 159.079 340.583 M 151.600 351.752 C 151.655 357.663, 152.405 365.650, 153.266 369.500 C 154.127 373.350, 154.843 378.300, 154.856 380.500 C 154.869 382.700, 155.582 386.173, 156.440 388.218 C 157.298 390.263, 158.007 393.863, 158.015 396.218 C 158.027 399.351, 158.291 400.098, 159 399 C 160.445 396.764, 160.213 391.403, 158.080 377.772 C 157.024 371.022, 155.378 359.988, 154.422 353.250 C 153.466 346.512, 152.417 341.001, 152.092 341.002 C 151.766 341.003, 151.545 345.840, 151.600 351.752 M 49.328 350.500 C 49.333 354.350, 49.513 355.802, 49.730 353.728 C 49.946 351.653, 49.943 348.503, 49.722 346.728 C 49.501 344.952, 49.324 346.650, 49.328 350.500 M 107.158 349 C 107.158 350.375, 107.385 350.938, 107.662 350.250 C 107.940 349.563, 107.940 348.438, 107.662 347.750 C 107.385 347.063, 107.158 347.625, 107.158 349 M 95.079 356.583 C 95.127 357.748, 95.364 357.985, 95.683 357.188 C 95.972 356.466, 95.936 355.603, 95.604 355.271 C 95.272 354.939, 95.036 355.529, 95.079 356.583 M 85.195 361.500 C 85.215 363.150, 85.439 363.704, 85.693 362.731 C 85.947 361.758, 85.930 360.408, 85.656 359.731 C 85.382 359.054, 85.175 359.850, 85.195 361.500 M 162.079 361.583 C 162.127 362.748, 162.364 362.985, 162.683 362.188 C 162.972 361.466, 162.936 360.603, 162.604 360.271 C 162.272 359.939, 162.036 360.529, 162.079 361.583 M 94.232 367 C 94.232 368.925, 94.438 369.712, 94.689 368.750 C 94.941 367.788, 94.941 366.212, 94.689 365.250 C 94.438 364.288, 94.232 365.075, 94.232 367 M 108.079 366.583 C 108.127 367.748, 108.364 367.985, 108.683 367.188 C 108.972 366.466, 108.936 365.603, 108.604 365.271 C 108.272 364.939, 108.036 365.529, 108.079 366.583 M 163.195 369.500 C 163.215 371.150, 163.439 371.704, 163.693 370.731 C 163.947 369.758, 163.930 368.408, 163.656 367.731 C 163.382 367.054, 163.175 367.850, 163.195 369.500 M 91.272 390 C 91.272 392.475, 91.467 393.488, 91.706 392.250 C 91.944 391.012, 91.944 388.988, 91.706 387.750 C 91.467 386.512, 91.272 387.525, 91.272 390 M 166.158 390 C 166.158 391.375, 166.385 391.938, 166.662 391.250 C 166.940 390.563, 166.940 389.438, 166.662 388.750 C 166.385 388.063, 166.158 388.625, 166.158 390 M 46.252 398.500 C 46.263 400.700, 46.468 401.482, 46.707 400.238 C 46.946 398.994, 46.937 397.194, 46.687 396.238 C 46.437 395.282, 46.241 396.300, 46.252 398.500 M 91.232 398 C 91.232 399.925, 91.438 400.712, 91.689 399.750 C 91.941 398.788, 91.941 397.212, 91.689 396.250 C 91.438 395.288, 91.232 396.075, 91.232 398 M 110.232 400 C 110.232 401.925, 110.438 402.712, 110.689 401.750 C 110.941 400.788, 110.941 399.212, 110.689 398.250 C 110.438 397.288, 110.232 398.075, 110.232 400 M 167.360 414 C 167.360 419.225, 167.529 421.363, 167.735 418.750 C 167.941 416.137, 167.941 411.863, 167.735 409.250 C 167.529 406.637, 167.360 408.775, 167.360 414 M 158.015 419.309 C 158.006 421.597, 158.399 422.871, 159 422.500 C 160.264 421.719, 160.264 418.956, 159 417 C 158.280 415.887, 158.027 416.481, 158.015 419.309 M 113.158 426 C 113.158 427.375, 113.385 427.938, 113.662 427.250 C 113.940 426.563, 113.940 425.438, 113.662 424.750 C 113.385 424.063, 113.158 424.625, 113.158 426 M 168.300 434 C 168.300 437.025, 168.487 438.262, 168.716 436.750 C 168.945 435.238, 168.945 432.762, 168.716 431.250 C 168.487 429.738, 168.300 430.975, 168.300 434 M 158.543 431.931 C 158.226 432.443, 158.425 433.144, 158.984 433.490 C 159.543 433.835, 160 433.416, 160 432.559 C 160 430.802, 159.400 430.544, 158.543 431.931 M 114.079 436.583 C 114.127 437.748, 114.364 437.985, 114.683 437.188 C 114.972 436.466, 114.936 435.603, 114.604 435.271 C 114.272 434.939, 114.036 435.529, 114.079 436.583 M 157.754 441.750 C 157.538 442.712, 157.742 444.572, 158.206 445.882 C 158.671 447.192, 158.766 449.161, 158.418 450.257 C 157.999 451.579, 158.159 452.020, 158.893 451.566 C 160.226 450.742, 160.394 440, 159.073 440 C 158.564 440, 157.970 440.788, 157.754 441.750 M 44.500 463 C 44.101 469.109, 43.991 474.325, 44.256 474.590 C 44.521 474.855, 45.062 470.071, 45.458 463.958 C 45.854 457.846, 45.964 452.631, 45.702 452.369 C 45.440 452.107, 44.899 456.891, 44.500 463 M 117.079 455.583 C 117.127 456.748, 117.364 456.985, 117.683 456.188 C 117.972 455.466, 117.936 454.603, 117.604 454.271 C 117.272 453.939, 117.036 454.529, 117.079 455.583 M 169.272 460 C 169.272 462.475, 169.467 463.488, 169.706 462.250 C 169.944 461.012, 169.944 458.988, 169.706 457.750 C 169.467 456.512, 169.272 457.525, 169.272 460 M 159 461 C 159 461.550, 159.450 462, 160 462 C 160.550 462, 161 461.550, 161 461 C 161 460.450, 160.550 460, 160 460 C 159.450 460, 159 460.450, 159 461 M 93.195 469.500 C 93.215 471.150, 93.439 471.704, 93.693 470.731 C 93.947 469.758, 93.930 468.408, 93.656 467.731 C 93.382 467.054, 93.175 467.850, 93.195 469.500 M 170.310 477.500 C 170.315 480.800, 170.502 482.029, 170.725 480.232 C 170.947 478.435, 170.943 475.735, 170.715 474.232 C 170.486 472.729, 170.304 474.200, 170.310 477.500 M 92.079 481.583 C 92.127 482.748, 92.364 482.985, 92.683 482.188 C 92.972 481.466, 92.936 480.603, 92.604 480.271 C 92.272 479.939, 92.036 480.529, 92.079 481.583 M 121.158 489 C 121.158 490.375, 121.385 490.938, 121.662 490.250 C 121.940 489.563, 121.940 488.438, 121.662 487.750 C 121.385 487.063, 121.158 487.625, 121.158 489 M 93.272 502 C 93.272 504.475, 93.467 505.488, 93.706 504.250 C 93.944 503.012, 93.944 500.988, 93.706 499.750 C 93.467 498.512, 93.272 499.525, 93.272 502 M 172.079 500.583 C 172.127 501.748, 172.364 501.985, 172.683 501.188 C 172.972 500.466, 172.936 499.603, 172.604 499.271 C 172.272 498.939, 172.036 499.529, 172.079 500.583 M 30.700 507.200 C 29.731 508.889, 29.143 510.477, 29.395 510.728 C 29.647 510.980, 30.594 509.752, 31.500 508 C 33.642 503.857, 32.992 503.207, 30.700 507.200 M 173.158 509 C 173.158 510.375, 173.385 510.938, 173.662 510.250 C 173.940 509.563, 173.940 508.438, 173.662 507.750 C 173.385 507.063, 173.158 507.625, 173.158 509 M 34.139 511.033 C 32.841 512.115, 31.135 513, 30.349 513 C 29.563 513, 27.230 513.862, 25.164 514.917 C 23.097 515.971, 19.628 517.156, 17.453 517.550 C 13.558 518.257, 7.488 520.826, 8.157 521.486 C 8.562 521.885, 20.763 518.212, 23.137 516.976 C 24.037 516.508, 27.637 515.832, 31.137 515.475 C 34.637 515.118, 37.549 514.753, 37.609 514.663 C 37.669 514.573, 38.016 513.263, 38.378 511.750 C 39.176 508.426, 37.591 508.158, 34.139 511.033 M 124.158 511 C 124.158 512.375, 124.385 512.938, 124.662 512.250 C 124.940 511.563, 124.940 510.438, 124.662 509.750 C 124.385 509.063, 124.158 509.625, 124.158 511 M 125.232 518 C 125.232 519.925, 125.438 520.712, 125.689 519.750 C 125.941 518.788, 125.941 517.212, 125.689 516.250 C 125.438 515.288, 125.232 516.075, 125.232 518 M 174.079 517.583 C 174.127 518.748, 174.364 518.985, 174.683 518.188 C 174.972 517.466, 174.936 516.603, 174.604 516.271 C 174.272 515.939, 174.036 516.529, 174.079 517.583 M 84.015 519.250 C 84.007 520.763, 84.450 522, 85 522 C 86.264 522, 86.264 519.957, 85 518 C 84.245 516.831, 84.027 517.107, 84.015 519.250 M 92.001 519.499 C 91.008 520.695, 91.011 521.612, 92.013 524.031 C 92.704 525.699, 93.450 526.883, 93.672 526.661 C 93.894 526.440, 93.542 525.089, 92.890 523.659 C 91.962 521.621, 91.980 520.728, 92.975 519.530 C 93.674 518.688, 94.020 518, 93.745 518 C 93.470 518, 92.685 518.675, 92.001 519.499 M 3.263 524.769 C 0.825 527.747, 0.451 529, 2 529 C 2.550 529, 3 528.325, 3 527.500 C 3 525.802, 4.566 525.489, 5.500 527 C 6.170 528.085, 11 528.405, 11 527.365 C 11 526.804, 6.206 521.970, 5.698 522.019 C 5.589 522.030, 4.494 523.267, 3.263 524.769 M 125.300 528 C 125.300 531.025, 125.487 532.263, 125.716 530.750 C 125.945 529.237, 125.945 526.763, 125.716 525.250 C 125.487 523.737, 125.300 524.975, 125.300 528 M 133.786 530.750 C 132.041 532.753, 130.762 538.265, 132.256 537.342 C 132.788 537.013, 133.515 537.216, 133.872 537.793 C 134.228 538.369, 135.728 539.145, 137.205 539.515 C 139.880 540.187, 139.889 540.171, 139.441 535.401 C 138.865 529.252, 136.666 527.443, 133.786 530.750 M 91.441 531.555 C 89.577 533.049, 89.589 533.067, 91.750 532.020 C 92.987 531.420, 94 530.720, 94 530.465 C 94 529.700, 93.481 529.921, 91.441 531.555 M 161.667 531.667 C 161.300 532.033, 161 532.798, 161 533.367 C 161 533.993, 161.466 533.934, 162.183 533.217 C 162.834 532.566, 163.134 531.801, 162.850 531.517 C 162.566 531.232, 162.033 531.300, 161.667 531.667 M 3 534.313 C 3 534.485, 4.462 535.948, 6.250 537.563 L 9.500 540.500 6.563 537.250 C 3.825 534.221, 3 533.540, 3 534.313 M 61 535 C 60.175 535.533, 59.950 535.969, 60.500 535.969 C 61.050 535.969, 62.175 535.533, 63 535 C 63.825 534.467, 64.050 534.031, 63.500 534.031 C 62.950 534.031, 61.825 534.467, 61 535 M 68.813 534.683 C 69.534 534.972, 70.397 534.936, 70.729 534.604 C 71.061 534.272, 70.471 534.036, 69.417 534.079 C 68.252 534.127, 68.015 534.364, 68.813 534.683 M 79.750 534.662 C 80.438 534.940, 81.563 534.940, 82.250 534.662 C 82.938 534.385, 82.375 534.158, 81 534.158 C 79.625 534.158, 79.063 534.385, 79.750 534.662 M 172.872 535.750 C 171.629 537.336, 171.664 537.371, 173.250 536.128 C 174.213 535.373, 175 534.585, 175 534.378 C 175 533.555, 174.179 534.084, 172.872 535.750 M 129.015 538.583 C 129.024 539.638, 129.487 541.175, 130.046 542 C 130.787 543.095, 130.880 542.691, 130.390 540.500 C 129.567 536.823, 128.995 536.025, 129.015 538.583 M 170.195 539.500 C 170.215 541.150, 170.439 541.704, 170.693 540.731 C 170.947 539.758, 170.930 538.408, 170.656 537.731 C 170.382 537.054, 170.175 537.850, 170.195 539.500 M 50.507 538.989 C 50.157 539.555, 50.558 539.723, 51.448 539.382 C 53.180 538.717, 53.497 538, 52.059 538 C 51.541 538, 50.843 538.445, 50.507 538.989 M 44.813 540.683 C 45.534 540.972, 46.397 540.936, 46.729 540.604 C 47.061 540.272, 46.471 540.036, 45.417 540.079 C 44.252 540.127, 44.015 540.364, 44.813 540.683 M 13.813 541.683 C 14.534 541.972, 15.397 541.936, 15.729 541.604 C 16.061 541.272, 15.471 541.036, 14.417 541.079 C 13.252 541.127, 13.015 541.364, 13.813 541.683 M 38.750 541.662 C 39.438 541.940, 40.563 541.940, 41.250 541.662 C 41.938 541.385, 41.375 541.158, 40 541.158 C 38.625 541.158, 38.063 541.385, 38.750 541.662 M 23.768 542.725 C 25.565 542.947, 28.265 542.943, 29.768 542.715 C 31.271 542.486, 29.800 542.304, 26.500 542.310 C 23.200 542.315, 21.971 542.502, 23.768 542.725 M 158.872 543.750 C 157.629 545.336, 157.664 545.371, 159.250 544.128 C 160.916 542.821, 161.445 542, 160.622 542 C 160.415 542, 159.627 542.788, 158.872 543.750 M 135.714 549.998 C 138.582 552.972, 141.077 555.201, 141.258 554.952 C 141.440 554.704, 139.093 552.270, 136.044 549.545 L 130.500 544.590 135.714 549.998 M 166.872 551.750 C 165.629 553.336, 165.664 553.371, 167.250 552.128 C 168.916 550.821, 169.445 550, 168.622 550 C 168.415 550, 167.627 550.788, 166.872 551.750 M 143 555 C 143 555.550, 143.702 556, 144.559 556 C 145.416 556, 145.840 555.550, 145.500 555 C 145.160 554.450, 144.459 554, 143.941 554 C 143.423 554, 143 554.450, 143 555 M 157.500 555 C 157.160 555.550, 157.835 556, 159 556 C 160.165 556, 160.840 555.550, 160.500 555 C 160.160 554.450, 159.485 554, 159 554 C 158.515 554, 157.840 554.450, 157.500 555" stroke="none" fill="#d0ac45" fill-rule="evenodd"/><path d="M 79.718 2.131 C 74.060 3.404, 70.839 5.367, 66.269 10.324 C 59.415 17.760, 57.786 21.939, 58.267 30.853 C 58.661 38.172, 61.217 47.137, 63.644 49.716 C 64.273 50.384, 65.776 53.084, 66.984 55.716 C 70.906 64.261, 71.325 65, 72.248 65 C 74.043 65, 70.489 51.402, 68.495 50.636 C 64.297 49.025, 61.122 37.658, 64.508 36.359 C 66.509 35.591, 70.813 38.495, 72.206 41.553 C 74.016 45.525, 74.753 44.400, 74.697 37.750 C 74.668 34.313, 75.220 30.433, 75.923 29.129 C 76.776 27.544, 76.983 25.016, 76.545 21.510 C 75.933 16.616, 76.044 16.221, 78.194 15.645 C 79.462 15.305, 85.039 15.021, 90.586 15.014 L 100.672 15 104.566 19.250 C 108.279 23.304, 108.481 23.870, 108.924 31.500 C 109.879 47.914, 109.472 56.297, 107.450 61.910 C 105.736 66.665, 104.946 67.577, 100.921 69.443 C 93.551 72.861, 85.964 78.806, 84.834 82.048 C 83.522 85.809, 81.899 85.792, 79.656 81.995 C 78.680 80.343, 76.349 77.768, 74.477 76.274 C 71.704 74.061, 71.190 73.091, 71.705 71.039 C 72.305 68.649, 72.248 68.609, 70.605 70.252 C 69.652 71.205, 69.160 72.450, 69.511 73.018 C 69.862 73.586, 68.428 75.656, 66.325 77.618 C 64.221 79.581, 59.772 83.844, 56.437 87.093 C 53.102 90.342, 49.840 93, 49.187 93 C 48.534 93, 47.997 93.338, 47.994 93.750 C 47.990 94.162, 46.543 95.400, 44.779 96.500 C 43.014 97.600, 40.608 99.175, 39.432 100 C 38.256 100.825, 35.431 102.625, 33.154 104 C 30.541 105.578, 29.008 107.237, 28.994 108.500 C 28.982 109.600, 28.690 111.556, 28.345 112.846 C 27.722 115.172, 27.740 115.169, 30.376 112.533 C 35.634 107.275, 46.828 103.697, 69.500 100.028 C 79.363 98.432, 90.032 96.146, 100.439 93.397 C 107.440 91.548, 110.151 90.295, 112.939 87.618 C 116.945 83.773, 127.985 78.078, 135.465 75.999 L 140.430 74.620 137.625 73.473 C 136.082 72.842, 134.433 71.701, 133.961 70.937 C 133.254 69.794, 132.607 69.913, 130.301 71.609 C 128.761 72.743, 126.316 73.965, 124.869 74.325 C 121.979 75.043, 116 73.370, 116 71.843 C 116 71.315, 115.502 71.190, 114.893 71.566 C 114.129 72.038, 114.023 71.513, 114.549 69.875 C 116.022 65.295, 117.735 53.476, 117.285 51 C 117.036 49.625, 116.706 45.350, 116.554 41.500 C 116.201 32.573, 115.080 26, 113.912 26 C 113.410 26, 113 25.392, 113 24.649 C 113 20.183, 100.381 4.807, 95.149 2.898 C 91.910 1.716, 83.436 1.295, 79.718 2.131 M 271.536 18.942 C 271.215 19.460, 268.925 20.189, 266.447 20.560 C 262.659 21.128, 262.025 21.536, 262.470 23.118 C 262.762 24.153, 263.240 25.851, 263.533 26.891 C 263.931 28.304, 262.800 29.711, 259.052 32.462 C 256.295 34.486, 253.615 35.880, 253.096 35.560 C 252.578 35.239, 251.858 33.632, 251.497 31.989 C 251.136 30.345, 250.374 29, 249.804 29 C 249.233 29, 248.998 29.885, 249.281 30.966 C 249.564 32.047, 249.504 32.894, 249.147 32.847 C 247.070 32.577, 246.905 33.237, 248.586 35.095 C 250.454 37.159, 250.448 37.218, 248.220 39.023 C 245.591 41.152, 246.834 42.509, 250.557 41.575 C 254.148 40.674, 253.516 42.182, 249.240 44.720 C 245.719 46.810, 245.631 46.977, 247.750 47.586 C 248.996 47.945, 250 49.026, 250 50.010 C 250 52.120, 246.964 53.559, 245.955 51.927 C 245.432 51.081, 245.061 51.093, 244.517 51.973 C 244.089 52.665, 244.669 53.781, 245.908 54.648 C 248.451 56.430, 247.791 58, 244.500 58 C 243.190 58, 241.840 58.450, 241.500 59 C 241.160 59.550, 241.760 60, 242.834 60 C 244.780 60, 246.400 62.267, 245.264 63.402 C 244.936 63.731, 243.167 64, 241.333 64 C 237.428 64, 236.887 65.683, 240.500 66.589 C 242.828 67.174, 244.068 69, 242.136 69 C 240.604 69, 231.552 67.158, 229.850 66.500 C 228.687 66.051, 228.244 66.368, 228.350 67.574 C 228.606 70.494, 226.071 70.315, 224.923 67.331 C 223.078 62.535, 223.484 56.570, 225.925 52.621 C 229.236 47.264, 226.338 47.973, 221.750 53.642 C 217.262 59.188, 216.728 63.825, 220.250 66.677 C 221.488 67.680, 222.500 69.175, 222.500 70 C 222.500 70.893, 223.613 71.628, 225.250 71.816 C 229.654 72.323, 228.449 73.583, 222.250 74.952 C 214.505 76.663, 212.405 77.930, 217.250 77.970 C 220.660 77.997, 222.715 79.791, 219.750 80.152 C 219.063 80.236, 218.050 80.409, 217.500 80.537 C 216.950 80.665, 215.822 80.821, 214.993 80.885 C 214.164 80.948, 210.237 83.475, 206.267 86.500 C 202.296 89.525, 198.729 92, 198.338 92 C 197.948 92, 196.685 92.886, 195.532 93.970 C 194.379 95.053, 190.449 96.566, 186.798 97.331 C 181.601 98.420, 179.330 99.510, 176.331 102.352 C 172.832 105.668, 169.016 107.400, 170.500 105 C 171.622 103.184, 168.671 103.961, 166.423 106.073 C 165.209 107.213, 163.574 108.239, 162.789 108.355 C 162.004 108.470, 159.943 110.125, 158.210 112.032 C 154.479 116.137, 154.245 114.990, 157.013 106.161 C 158.106 102.674, 159 99.385, 159 98.852 C 159 96.766, 156.686 99.478, 154.572 104.042 C 153.349 106.681, 151.160 110.338, 149.706 112.170 C 148.253 114.001, 146.436 116.365, 145.669 117.422 C 144.295 119.317, 144.226 119.317, 140.887 117.381 C 138.551 116.026, 136.569 113.498, 134.500 109.234 C 132.850 105.833, 131.250 103.039, 130.944 103.025 C 130.638 103.011, 129.808 107.162, 129.099 112.250 C 128.390 117.338, 126.741 127.169, 125.436 134.097 C 124.130 141.025, 121.913 156.073, 120.507 167.537 C 119.102 179.001, 117.751 188.583, 117.504 188.829 C 117.257 189.076, 113.556 185.944, 109.278 181.870 C 96.218 169.431, 98.417 170.122, 89.346 175.608 C 85.031 178.218, 79.250 182.001, 76.500 184.015 C 73.750 186.029, 67.788 189.817, 63.250 192.433 C 58.713 195.049, 54.731 197.626, 54.401 198.160 C 54.047 198.733, 53.108 198.502, 52.108 197.598 C 50.538 196.177, 50.286 196.668, 48.664 204.282 C 47.701 208.802, 44.638 219.250, 41.857 227.500 C 39.076 235.750, 36.669 244.133, 36.507 246.129 C 36.036 251.930, 34.863 256.268, 34.013 255.349 C 33.582 254.882, 33.547 252.137, 33.935 249.250 C 34.706 243.517, 34.330 242.966, 31.722 246.011 C 29.850 248.198, 29.535 249.644, 30.819 250.167 C 32.032 250.661, 30.963 259.095, 29.638 259.478 C 24.732 260.900, 24.778 260.845, 26.438 263.215 C 28.536 266.210, 28.405 269.890, 26 275.500 C 24.759 278.396, 24 282.388, 24 286.024 C 24 289.246, 23.535 292.169, 22.967 292.520 C 22.308 292.927, 22.625 294.306, 23.842 296.329 C 24.892 298.073, 25.531 300.101, 25.263 300.837 C 24.473 303.004, 30.990 309, 34.137 309 C 35.647 309, 37.154 308.560, 37.486 308.023 C 38.303 306.700, 36.078 298.677, 34.647 297.786 C 32.745 296.603, 33.205 285.536, 35.250 283.276 C 36.292 282.125, 37 279.752, 37 277.412 C 37 274.564, 37.551 273.137, 39 272.232 C 40.284 271.430, 41 269.900, 41 267.959 C 41 266.296, 41.675 263.320, 42.500 261.346 C 43.325 259.371, 44 255.661, 44 253.100 C 44 250.540, 44.612 247.557, 45.360 246.473 C 46.107 245.388, 47.488 241.013, 48.428 236.750 C 49.368 232.488, 50.518 229, 50.985 229 C 52.233 229, 51.283 245.843, 49.322 258.500 C 47.384 271.004, 46.811 318.681, 48.409 334.500 C 49.735 347.634, 49.153 377.326, 47.517 379.972 C 47.204 380.478, 46.512 401.729, 45.978 427.196 C 45.445 452.663, 44.549 476.416, 43.987 479.979 C 43.043 485.967, 37.487 499.275, 34.697 502.232 C 33.712 503.275, 32.002 506.389, 29.193 512.250 C 28.468 513.763, 31.803 512.942, 34.273 511 C 37.846 508.190, 39.174 508.433, 38.378 511.750 C 38.016 513.263, 37.669 514.573, 37.609 514.663 C 37.549 514.753, 34.637 515.118, 31.137 515.475 C 27.637 515.832, 24.037 516.511, 23.137 516.985 C 22.237 517.458, 18.238 518.837, 14.250 520.048 C 10.262 521.260, 7 522.629, 7 523.090 C 7 523.552, 7.900 524.411, 9 525 C 10.100 525.589, 11 526.505, 11 527.035 C 11 528.312, 6.292 528.282, 5.500 527 C 4.566 525.489, 3 525.802, 3 527.500 C 3 528.325, 2.550 529, 2 529 C -0.285 529, 1.289 532.162, 5.583 536.195 C 10.756 541.055, 14.205 542.070, 26 542.205 C 33.936 542.296, 47.397 540.524, 50.127 539.028 C 51.022 538.538, 53.485 537.812, 55.602 537.415 C 57.718 537.018, 60.056 536.087, 60.796 535.347 C 62.401 533.742, 70.147 533.547, 71.673 535.073 C 72.411 535.811, 73.953 535.840, 76.623 535.164 C 78.755 534.624, 82.525 533.900, 85 533.554 C 87.475 533.209, 90.601 532.087, 91.946 531.061 L 94.392 529.196 92.543 525.096 C 90.783 521.193, 90.778 520.903, 92.439 519.067 C 93.995 517.348, 94.100 515.807, 93.411 504.820 C 92.986 498.044, 92.744 489.350, 92.873 485.500 C 93.236 474.670, 93.230 473.453, 92.647 441 C 92.345 424.225, 91.825 405.492, 91.490 399.372 C 91.045 391.223, 91.272 386.673, 92.340 382.372 C 93.142 379.142, 94.096 371.788, 94.460 366.029 C 94.824 360.270, 95.620 354.957, 96.230 354.223 C 96.839 353.489, 97.550 349.201, 97.811 344.694 C 98.089 339.874, 98.897 335.564, 99.773 334.226 C 100.822 332.623, 101.228 329.464, 101.147 323.525 C 101.084 318.890, 101.438 314.847, 101.935 314.540 C 102.955 313.910, 103.550 316.296, 105.009 326.866 C 105.568 330.918, 106.233 334.569, 106.487 334.979 C 106.741 335.390, 107.221 341.975, 107.555 349.613 C 107.889 357.251, 108.386 364.175, 108.660 365 C 108.935 365.825, 109.398 372.575, 109.688 380 C 110.270 394.834, 112.114 415.942, 114.451 434.500 C 115.282 441.100, 116.011 447.175, 116.071 448 C 116.131 448.825, 116.585 450.850, 117.079 452.500 C 117.574 454.150, 118.396 460.675, 118.906 467 C 119.416 473.325, 120.128 479.850, 120.489 481.500 C 120.850 483.150, 121.769 489.675, 122.533 496 C 123.296 502.325, 124.351 509.525, 124.878 512 C 125.404 514.475, 125.811 520.519, 125.781 525.430 C 125.733 533.283, 125.976 534.562, 127.790 536.031 C 128.925 536.950, 130.157 539.322, 130.529 541.303 C 131.326 545.551, 140.897 555.361, 143.333 554.426 C 144.138 554.117, 145.095 554.344, 145.458 554.932 C 146.198 556.129, 156.257 556.409, 157.402 555.264 C 157.807 554.860, 159.509 554.460, 161.185 554.376 C 166.131 554.127, 169.239 550.161, 169.801 543.384 C 170.201 538.559, 170.749 537.241, 173.217 535.164 C 176.012 532.812, 176.132 532.389, 175.651 526.595 C 175.373 523.243, 174.430 515.550, 173.554 509.500 C 172.679 503.450, 171.796 496.250, 171.594 493.500 C 169.467 464.674, 166.910 410.779, 167.252 402 C 167.370 398.975, 166.648 391.325, 165.649 385 C 164.649 378.675, 163.201 368.550, 162.432 362.500 C 161.662 356.450, 160.772 350.150, 160.454 348.500 C 159.625 344.194, 158.149 311.831, 158.069 296.193 C 158.031 288.874, 157.559 280.999, 157.020 278.693 C 156.481 276.387, 155.603 268.200, 155.069 260.500 C 153.974 244.698, 153.933 244.436, 151.991 241 C 151.062 239.357, 150.646 235.959, 150.777 231.088 C 150.898 226.551, 150.514 223.120, 149.788 222.244 C 148.116 220.230, 148.026 174.303, 149.687 170.918 C 150.339 169.588, 151.310 166.025, 151.843 163 C 152.377 159.975, 153.100 156.375, 153.450 155 C 153.801 153.625, 154.543 149.815, 155.100 146.534 C 155.657 143.253, 156.444 140.103, 156.848 139.534 C 157.252 138.965, 158.174 136.761, 158.898 134.636 C 160.650 129.484, 163.613 126.244, 167.315 125.431 C 168.987 125.064, 172.413 123.517, 174.927 121.993 C 177.442 120.470, 180.625 118.888, 182 118.477 C 183.375 118.066, 184.725 117.454, 185 117.115 C 185.275 116.777, 187.075 115.705, 189 114.733 C 190.925 113.761, 195.200 111.556, 198.500 109.833 C 201.800 108.111, 205.400 106.367, 206.500 105.958 C 209.465 104.855, 220.422 99.601, 221 99.004 C 221.275 98.721, 223.300 97.157, 225.500 95.531 C 227.700 93.904, 230.040 92.106, 230.699 91.536 C 231.358 90.966, 233.771 88.925, 236.061 87 C 238.351 85.075, 241.395 82.411, 242.827 81.081 C 244.258 79.750, 247.343 78.304, 249.681 77.867 C 254.702 76.929, 262 72.385, 262 70.196 C 262 69.350, 262.737 67.843, 263.638 66.847 C 264.898 65.455, 265.010 64.717, 264.126 63.651 C 263.245 62.590, 263.314 61.984, 264.420 61.067 C 265.470 60.195, 265.797 58.014, 265.618 53.072 L 265.372 46.275 269.436 43.670 C 273.750 40.904, 278.265 36.631, 282.646 31.166 L 285.320 27.832 280.410 22.948 C 275.693 18.256, 272.774 16.938, 271.536 18.942 M 240.263 36.769 C 237.597 40.025, 237.076 47, 239.500 47 C 240.356 47, 241 46.101, 241 44.906 C 241 43.658, 241.803 42.603, 242.989 42.293 C 244.083 42.007, 244.718 41.352, 244.400 40.838 C 244.059 40.286, 243.244 40.383, 242.411 41.074 C 241.482 41.845, 241 41.882, 241 41.181 C 241 40.597, 241.457 39.835, 242.016 39.490 C 242.575 39.144, 242.793 38.474, 242.500 38 C 242.207 37.526, 242.425 36.856, 242.984 36.510 C 244.163 35.781, 244.354 33.991, 243.250 34.019 C 242.838 34.030, 241.494 35.267, 240.263 36.769 M 255.482 38.188 C 255.132 39.098, 255.331 40.749, 255.923 41.856 C 257.612 45.012, 257.229 46.024, 253.908 47.182 C 251.313 48.086, 250.895 48.669, 251.304 50.810 C 251.572 52.213, 251.280 54.180, 250.655 55.180 C 249.802 56.547, 249.814 57.472, 250.704 58.898 C 251.709 60.506, 251.577 60.877, 249.839 61.332 C 247.125 62.042, 248 64.421, 251.114 64.796 C 253.149 65.041, 253.888 64.381, 255.389 60.980 C 256.386 58.719, 256.944 56.610, 256.628 56.294 C 256.311 55.978, 256.795 54.462, 257.703 52.925 C 259.028 50.682, 259.110 49.838, 258.119 48.644 C 257.141 47.465, 257.141 46.748, 258.118 45.183 C 259.121 43.576, 259.049 42.586, 257.734 39.870 C 256.462 37.243, 255.982 36.885, 255.482 38.188 M 236.300 71.310 C 234.846 73.692, 230.600 76, 227.671 76 C 225.646 76, 224.942 76.406, 225.309 77.363 C 225.597 78.113, 223.753 81.103, 221.212 84.007 C 215.181 90.903, 218.404 89.080, 229.013 79.597 C 233.681 75.425, 237.838 72.008, 238.250 72.005 C 238.662 72.002, 239 71.550, 239 71 C 239 69.565, 237.242 69.767, 236.300 71.310 M 72 77.378 C 72 77.585, 72.787 78.373, 73.750 79.128 C 75.336 80.371, 75.371 80.336, 74.128 78.750 C 72.821 77.084, 72 76.555, 72 77.378 M 183 105.019 C 170.462 111.941, 164.938 115.271, 165.335 115.668 C 166.155 116.488, 195 100.665, 195 99.396 C 195 98.550, 193.140 99.421, 183 105.019 M 157.548 117.923 C 157.234 118.431, 155.684 119.130, 154.105 119.477 C 151.670 120.012, 150.776 121.206, 148.241 127.304 C 146.596 131.262, 144.757 137.362, 144.155 140.861 C 143.553 144.359, 142.621 147.752, 142.083 148.400 C 139.369 151.670, 138.500 159.304, 138.315 181.500 C 138.070 210.815, 137.644 222.209, 136.738 223.641 C 136.319 224.304, 137.088 225.483, 138.576 226.458 C 140.627 227.801, 140.900 228.416, 139.954 229.555 C 139.025 230.675, 139.117 231.108, 140.387 231.595 C 141.274 231.936, 142.012 232.953, 142.026 233.857 C 142.041 234.761, 142.904 237.300, 143.945 239.500 L 145.838 243.500 145.919 239.715 C 145.964 237.633, 145.282 234.833, 144.404 233.494 C 143.291 231.795, 142.710 228.100, 142.485 221.279 C 142.307 215.901, 141.706 203.472, 141.148 193.660 C 140.125 175.666, 140.441 170.857, 143.391 159.500 C 144.248 156.200, 146.100 148.325, 147.506 142 C 149.887 131.294, 154.187 120, 155.882 120 C 157.166 120, 160.554 117.065, 159.309 117.032 C 158.654 117.014, 157.861 117.415, 157.548 117.923 M 122.731 124.920 C 122.296 126.583, 122.426 126.974, 123.168 126.232 C 123.750 125.650, 124.028 124.585, 123.788 123.863 C 123.538 123.114, 123.085 123.568, 122.731 124.920 M 40 140.762 C 40 141.416, 40.898 143.425, 41.996 145.226 C 43.094 147.027, 43.994 149.458, 43.996 150.628 C 43.998 151.798, 44.722 154.483, 45.603 156.593 C 46.699 159.215, 46.857 160.548, 46.103 160.799 C 45.497 161.001, 45 162.281, 45 163.642 C 45 165.025, 45.438 165.847, 45.992 165.505 C 46.623 165.115, 46.841 167.188, 46.592 171.196 C 46.377 174.663, 46.156 178.297, 46.100 179.271 C 46.045 180.246, 44.875 181.555, 43.500 182.182 C 40.627 183.491, 40.161 185.211, 42.750 184.948 C 46.055 184.612, 48 185.001, 48 186 C 48 186.550, 47.341 187, 46.535 187 C 45.730 187, 44.569 187.937, 43.955 189.083 C 43.080 190.720, 43.176 191.537, 44.407 192.897 C 45.559 194.170, 45.678 194.922, 44.857 195.743 C 43.690 196.910, 42.870 204.006, 43.904 203.992 C 44.973 203.978, 47 198.668, 47 195.882 C 47 192.053, 47.960 190, 49.752 190 C 51.069 190, 51.174 188.957, 50.484 182.750 C 49.659 175.319, 49.518 168.932, 50.006 161 C 50.228 157.404, 49.538 155.093, 46.574 149.500 C 42.723 142.233, 40 138.614, 40 140.762 M 40.469 207.051 C 40.141 207.581, 40.640 208.308, 41.577 208.668 C 43.146 209.270, 43.132 209.430, 41.395 210.700 C 39.874 211.813, 39.773 212.242, 40.875 212.923 C 42.028 213.635, 42.027 213.901, 40.870 214.633 C 39.287 215.635, 37 219.453, 37 221.093 C 37 221.710, 37.675 221.955, 38.500 221.638 C 41.046 220.661, 40.153 222.609, 37.500 223.818 C 34.484 225.192, 34.220 227, 37.036 227 C 41.124 227, 46.347 208.115, 42.652 206.697 C 41.779 206.362, 40.796 206.521, 40.469 207.051 M 36.139 230.086 C 33.923 231.882, 33.902 232, 35.782 232 C 36.884 232, 38.070 231.261, 38.417 230.357 C 39.327 227.985, 38.807 227.923, 36.139 230.086 M 35.085 236.250 C 34.617 237.488, 34.476 238.906, 34.770 239.401 C 35.406 240.473, 38 237.187, 38 235.309 C 38 233.174, 36.004 233.819, 35.085 236.250 M 145.752 244.750 C 145.551 245.162, 145.703 247.075, 146.089 249 C 146.787 252.475, 146.791 252.470, 146.700 248.250 C 146.609 243.993, 146.435 243.350, 145.752 244.750 M 32.667 258.667 C 31.620 259.714, 31.888 264, 33 264 C 33.550 264, 34 262.650, 34 261 C 34 257.893, 33.796 257.537, 32.667 258.667 M 147.675 278.500 C 147.938 288.950, 148.569 301.088, 149.077 305.474 C 149.584 309.859, 150.083 317.959, 150.185 323.474 C 150.287 328.988, 150.527 331.250, 150.718 328.500 C 151.219 321.297, 149.165 271.512, 148.098 265 C 147.473 261.189, 147.343 265.335, 147.675 278.500 M 17.810 277 C 17.509 278.925, 17.580 281.367, 17.968 282.426 C 18.644 284.271, 18.698 284.263, 19.225 282.246 C 19.528 281.088, 19.457 278.646, 19.067 276.820 L 18.359 273.500 17.810 277 M 151.600 351.752 C 151.655 357.663, 152.405 365.650, 153.266 369.500 C 154.127 373.350, 154.843 378.300, 154.856 380.500 C 154.869 382.700, 155.582 386.173, 156.440 388.218 C 157.298 390.263, 158.007 393.863, 158.015 396.218 C 158.027 399.351, 158.291 400.098, 159 399 C 160.445 396.764, 160.213 391.403, 158.080 377.772 C 157.024 371.022, 155.378 359.988, 154.422 353.250 C 153.466 346.512, 152.417 341.001, 152.092 341.002 C 151.766 341.003, 151.545 345.840, 151.600 351.752 M 85.195 361.500 C 85.215 363.150, 85.439 363.704, 85.693 362.731 C 85.947 361.758, 85.930 360.408, 85.656 359.731 C 85.382 359.054, 85.175 359.850, 85.195 361.500 M 158.015 419.309 C 158.006 421.597, 158.399 422.871, 159 422.500 C 160.264 421.719, 160.264 418.956, 159 417 C 158.280 415.887, 158.027 416.481, 158.015 419.309 M 158.543 431.931 C 158.226 432.443, 158.425 433.144, 158.984 433.490 C 159.543 433.835, 160 433.416, 160 432.559 C 160 430.802, 159.400 430.544, 158.543 431.931 M 157.754 441.750 C 157.538 442.712, 157.742 444.572, 158.206 445.882 C 158.671 447.192, 158.766 449.161, 158.418 450.257 C 157.999 451.579, 158.159 452.020, 158.893 451.566 C 160.226 450.742, 160.394 440, 159.073 440 C 158.564 440, 157.970 440.788, 157.754 441.750 M 159 461 C 159 461.550, 159.450 462, 160 462 C 160.550 462, 161 461.550, 161 461 C 161 460.450, 160.550 460, 160 460 C 159.450 460, 159 460.450, 159 461 M 84.015 519.250 C 84.007 520.763, 84.450 522, 85 522 C 86.264 522, 86.264 519.957, 85 518 C 84.245 516.831, 84.027 517.107, 84.015 519.250 M 133.786 530.750 C 132.041 532.753, 130.762 538.265, 132.256 537.342 C 132.788 537.013, 133.515 537.216, 133.872 537.793 C 134.228 538.369, 135.728 539.145, 137.205 539.515 C 139.880 540.187, 139.889 540.171, 139.441 535.401 C 138.865 529.252, 136.666 527.443, 133.786 530.750 M 161.667 531.667 C 161.300 532.033, 161 532.798, 161 533.367 C 161 533.993, 161.466 533.934, 162.183 533.217 C 162.834 532.566, 163.134 531.801, 162.850 531.517 C 162.566 531.232, 162.033 531.300, 161.667 531.667 M 158.872 543.750 C 157.629 545.336, 157.664 545.371, 159.250 544.128 C 160.916 542.821, 161.445 542, 160.622 542 C 160.415 542, 159.627 542.788, 158.872 543.750" stroke="none" fill="#1e1c1b" fill-rule="evenodd"/></svg>